Coordinates
version=1
nRows=13
nColumns=40
inDegrees=yes

Units are S.I. units (second, meters, Newtons, ...)
Angles are in degrees.

endheader
time	pelvis_tilt	pelvis_list	pelvis_rotation	pelvis_tx	pelvis_ty	pelvis_tz	hip_flexion_r	hip_adduction_r	hip_rotation_r	knee_angle_r	knee_angle_r_beta	ankle_angle_r	subtalar_angle_r	mtp_angle_r	hip_flexion_l	hip_adduction_l	hip_rotation_l	knee_angle_l	knee_angle_l_beta	ankle_angle_l	subtalar_angle_l	mtp_angle_l	lumbar_extension	lumbar_bending	lumbar_rotation	arm_flex_r	arm_add_r	arm_rot_r	elbow_flex_r	pro_sup_r	wrist_flex_r	wrist_dev_r	arm_flex_l	arm_add_l	arm_rot_l	elbow_flex_l	pro_sup_l	wrist_flex_l	wrist_dev_l
     49.35828571	     -6.72141434	     -3.80631936	      2.13499429	      0.83171502	      0.92881989	      0.50362993	     12.92217466	      2.33397372	    -16.75699640	     16.70764146	     16.70764146	     11.31022688	     -3.37569848	     -2.53141109	     34.02250984	     -9.20345174	      1.56685076	     41.01945512	     41.01945512	      9.52520578	    -17.07151624	     10.57871264	    -10.64405489	      5.02946105	      0.98863776	     25.81135130	    -17.02732199	     -4.22217883	     74.28473027	     44.96389625	      0.00000000	      0.00000000	      2.87770019	     -6.89842228	     -8.51245967	     29.17292415	     46.64971145	      0.00000000	      0.00000000
     49.37157143	     -6.92315477	     -3.85446640	      2.48604970	      0.83096535	      0.92848106	      0.50321133	     12.65820419	      2.34287625	    -17.03549617	     16.60286454	     16.60286454	     11.54931747	     -3.32432457	     -2.60918783	     34.13667400	     -8.78393320	      1.71282390	     36.93604782	     36.93604782	      9.47807988	    -16.25522739	      9.59117575	    -10.54279564	      5.12202264	      0.92513541	     27.38774208	    -17.28918660	     -3.90524549	     77.24992118	     44.87681108	      0.00000000	      0.00000000	      2.27580248	     -6.81576703	     -8.40426473	     27.23086131	     46.61638613	      0.00000000	      0.00000000
     49.38485714	     -7.03455751	     -3.75005295	      2.76985401	      0.83039164	      0.92832034	      0.50266992	     12.29816590	      2.20915056	    -17.10481072	     16.53034048	     16.53034048	     11.81749776	     -3.46860137	     -2.67741221	     33.99169003	     -8.27421301	      1.68929144	     32.88972566	     32.88972566	      9.78445030	    -14.83333578	      9.59031341	    -10.51553405	      4.97975145	      1.03015272	     29.07145085	    -17.42957527	     -4.02991990	     78.84230167	     44.84179914	      0.00000000	      0.00000000	      1.42563327	     -6.79331721	     -8.36359746	     26.43134797	     46.59334703	      0.00000000	      0.00000000
     49.39814286	     -7.12583966	     -3.73053105	      3.05534094	      0.82992009	      0.92806381	      0.50201101	     11.90094698	      2.15695955	    -17.25320076	     16.44269006	     16.44269006	     12.09361879	     -3.50909982	     -2.74706715	     33.85498611	     -7.84614565	      1.75665709	     29.15914465	     29.15914465	     10.02650117	    -13.15843897	      9.50875314	    -10.49226311	      4.96016610	      0.93470486	     30.74469668	    -17.40527322	     -4.01235495	     80.89399878	     44.78830449	      0.00000000	      0.00000000	      0.51517165	     -6.81691605	     -8.28751795	     25.58453553	     46.56321611	      0.00000000	      0.00000000
     49.41142857	     -7.26221091	     -3.72968789	      3.33585830	      0.82950492	      0.92763114	      0.50120742	     11.54654122	      2.11660230	    -17.40404442	     16.34814331	     16.34814331	     12.40254431	     -3.56050679	     -2.82203164	     33.80750312	     -7.44861858	      1.83381001	     25.82177786	     25.82177786	     10.21938316	    -11.40970159	      9.60937190	    -10.38487802	      4.96046560	      0.97100545	     32.36191657	    -17.46532510	     -4.01263333	     82.66330332	     44.74309470	      0.00000000	      0.00000000	     -0.34483085	     -6.79853517	     -8.21632213	     24.98830485	     46.53429162	      0.00000000	      0.00000000
     49.42471429	     -7.43322079	     -3.88413831	      3.60856578	      0.82913691	      0.92693762	      0.50024740	     11.26884845	      2.21757932	    -17.58310349	     16.32057837	     16.32057837	     12.69216357	     -3.61820397	     -2.91046690	     33.98015356	     -7.18537097	      2.10084201	     23.17228289	     23.17228289	     10.46099286	     -9.93399994	      9.76973794	    -10.17203783	      5.18079256	      1.11215239	     34.02026903	    -17.66745736	     -4.12112452	     84.03510914	     44.71230719	      0.00000000	      0.00000000	     -1.17303839	     -6.75123345	     -8.17416189	     24.57399661	     46.51092674	      0.00000000	      0.00000000
     49.43800000	     -7.34196106	     -3.80248293	      3.81770823	      0.82916669	      0.92682165	      0.49929570	     10.56877862	      2.12364527	    -17.69131088	     16.11435728	     16.11435728	     13.03319959	     -3.44031916	     -2.90621615	     33.67373982	     -6.84275950	      1.86399503	     20.70198074	     20.70198074	     10.54655959	     -8.27146501	      9.82583385	    -10.33891549	      5.05703322	      0.84669418	     35.33116079	    -17.35670922	     -3.78564777	     86.72615231	     44.62927634	      0.00000000	      0.00000000	     -2.16785839	     -6.85471112	     -8.01561868	     24.13946897	     46.45966173	      0.00000000	      0.00000000
     49.45128571	     -7.39793533	     -3.93006029	      4.02427650	      0.82918403	      0.92622872	      0.49822950	     10.05837117	      2.21942216	    -17.92367661	     15.94647780	     15.94647780	     13.42826344	     -3.18862736	     -2.80833645	     33.80407076	     -6.68796555	      1.75873603	     19.10765569	     19.10765569	     10.50805732	     -7.12678297	      9.61371273	    -10.29384693	      5.22391598	      1.10084016	     36.34778221	    -17.71353110	     -3.53568127	     89.58652520	     44.55747884	      0.00000000	      0.00000000	     -3.01838470	     -6.86738182	     -7.59463473	     24.29919669	     46.35099820	      0.00000000	      0.00000000
     49.46457143	     -7.41769299	     -3.96305008	      4.15785421	      0.82938170	      0.92572202	      0.49709180	      9.51028884	      2.22789845	    -17.98857947	     15.81432933	     15.81432933	     13.87133613	     -3.03916144	     -2.57991262	     33.81462836	     -6.47756974	      1.58636220	     17.88501017	     17.88501017	     10.22457447	     -6.51993510	      9.23491376	    -10.23311865	      5.23753859	      1.44603187	     37.28878602	    -17.96896718	     -3.66985185	     91.71011630	     44.55270147	      0.00000000	      0.00000000	     -3.96243298	     -7.03014250	     -6.43739104	     24.79070944	     46.09843305	      0.00000000	      0.00000000
     49.47785714	     -7.51838514	     -4.03253162	      4.24575530	      0.82965340	      0.92496767	      0.49589229	      9.03525779	      2.28635458	    -17.96015029	     15.64327910	     15.64327910	     14.20526392	     -3.00188556	     -2.63423958	     34.04736390	     -6.33053300	      1.38420265	     17.38354693	     17.38354693	     10.06016533	     -6.30385569	      9.31354769	     -9.99016257	      5.27443314	      1.63248793	     38.56826981	    -17.97952507	     -3.79761334	     92.50897111	     44.54006189	      0.00000000	      0.00000000	     -4.69678216	     -7.04227800	     -6.37603000	     24.56448169	     46.07306389	      0.00000000	      0.00000000
     49.49114286	     -7.41189206	     -4.10073088	      4.33655712	      0.83037217	      0.92452937	      0.49464707	      8.14854558	      2.39908983	    -18.04106153	     15.17165931	     15.17165931	     14.53423799	     -2.70396859	     -2.56474468	     33.94605920	     -6.24209869	      1.09038110	     17.15593743	     17.15593743	      9.72082715	     -6.19025110	      9.04891136	    -10.00654483	      5.31516193	      1.37785488	     39.53589003	    -17.40991311	     -3.45733578	     94.53818453	     44.48259199	      0.00000000	      0.00000000	     -5.67509685	     -7.10109820	     -6.08328904	     24.74126377	     45.99551615	      0.00000000	      0.00000000
     49.50442857	     -7.45271741	     -4.13558149	      4.30954699	      0.83116495	      0.92370829	      0.49337052	      7.53262207	      2.43498528	    -17.93747408	     14.93400549	     14.93400549	     14.90423473	     -2.56297731	     -2.60965523	     34.00794335	     -6.16731466	      0.74673128	     17.37920248	     17.37920248	      9.33839218	     -6.38998855	      9.00449366	     -9.77254108	      5.28112507	      1.64333771	     40.48064645	    -17.40303572	     -3.48301272	     95.32001275	     44.46633304	      0.00000000	      0.00000000	     -6.34606672	     -7.10408083	     -6.02192263	     24.69923088	     45.97006309	      0.00000000	      0.00000000
     49.51771429	     -7.33878123	     -4.29283679	      4.31294222	      0.83237295	      0.92300521	      0.49203451	      6.53163643	      2.65420413	    -18.03107540	     14.31268566	     14.31268566	     15.23383419	     -2.03418547	     -2.51290322	     33.84956740	     -6.24566080	      0.45904838	     17.82357189	     17.82357189	      8.60969789	     -6.58441894	      8.00791759	     -9.74270493	      5.40807614	      1.62526172	     40.95962508	    -17.20382484	     -3.05338700	     97.64855917	     44.40408347	      0.00000000	      0.00000000	     -7.45061056	     -7.18925553	     -5.59774774	     25.73430950	     45.86005212	      0.00000000	      0.00000000
